<svg width="64" height="64" viewBox="0 0 64 64" fill="none" xmlns="http://www.w3.org/2000/svg">
  <rect width="64" height="64" rx="12" fill="#4F46E5"/>
  <!-- Chef's Hat -->
  <path d="M23 25C23 22.2386 25.2386 20 28 20H36C38.7614 20 41 22.2386 41 25V26H23V25Z" fill="white"/>
  <path fill-rule="evenodd" clip-rule="evenodd" d="M22 20C19.7909 20 18 21.7909 18 24C18 26.2091 19.7909 28 22 28H23V26H22C20.8954 26 20 25.1046 20 24C20 22.8954 20.8954 22 22 22C22.5523 22 23 21.5523 23 21V20H22Z" fill="white"/>
  <path fill-rule="evenodd" clip-rule="evenodd" d="M42 20C44.2091 20 46 21.7909 46 24C46 26.2091 44.2091 28 42 28H41V26H42C43.1046 26 44 25.1046 44 24C44 22.8954 43.1046 22 42 22C41.4477 22 41 21.5523 41 21V20H42Z" fill="white"/>
  <!-- Document -->
  <path d="M18 30H46V48H18V30Z" fill="white"/>
  <path d="M23 35H41" stroke="#4F46E5" stroke-width="2.5" stroke-linecap="round"/>
  <path d="M23 40H41" stroke="#4F46E5" stroke-width="2.5" stroke-linecap="round"/>
  <path d="M23 45H35" stroke="#4F46E5" stroke-width="2.5" stroke-linecap="round"/>
</svg>